<svg version="1.1" xmlns="http://www.w3.org/2000/svg" width="1024" height="1024" viewBox="0 0 1024 1024">
<path fill="currentColor" d="M684.309 381.298c0 95.163-77.145 172.308-172.308 172.308s-172.308-77.145-172.308-172.308c0-95.163 77.145-172.308 172.308-172.308s172.308 77.145 172.308 172.308zM512.001 1024c0 0 381.313-432.091 381.313-642.683 0-210.595-170.718-381.317-381.313-381.317s-381.317 170.722-381.317 381.315c0 210.593 381.317 642.685 381.317 642.685zM512.001 118.027c145.389 0 263.271 117.861 263.271 263.271s-117.882 263.269-263.271 263.269c-145.39 0-263.269-117.861-263.269-263.269s117.878-263.271 263.269-263.271z"></path>
</svg>
